#N canvas 809 385 450 300 12;
#X obj 31 25 hsl 162 19 0 127 0 0 empty empty empty -2 -10 0 12 #fcfcfc #000000 #000000 0 1;
#X obj 29 105 * 1000;
#X obj 29 65 / 127;
#X obj 27 142 + 100;
#X obj 27 181 oscformat freq;
#X obj 23 217 print;
#X connect 0 0 2 0;
#X connect 1 0 3 0;
#X connect 2 0 1 0;
#X connect 3 0 4 0;
#X connect 4 0 5 0;
